M48
INCH,TZ
T1C0.025
T2C0.032
T3C0.040
T4C0.138
%
G90
G05
T1
X7250Y-12000
X8000Y-7500
X8000Y-15250
X8750Y-10500
X11000Y-9250
X12250Y-16750
X12250Y-17850
X12500Y-9750
X12650Y-17300
X13000Y-17750
X13250Y-20250
X13450Y-14200
T2
X7500Y-6500
X7500Y-8500
X8750Y-12250
X8750Y-15250
X8750Y-17500
X9750Y-11500
X9750Y-14500
X10500Y-10000
X10500Y-12000
X11250Y-10000
X11250Y-11000
X11250Y-12000
X11250Y-13000
X11250Y-14000
X11250Y-15000
X11250Y-16000
X11750Y-17500
X14250Y-10000
X14250Y-11000
X14250Y-12000
X14250Y-13000
X14250Y-14000
X14250Y-15000
X14250Y-16000
T3
X6500Y-7500
X6500Y-8500
X6500Y-10500
X6500Y-11500
X6500Y-12500
X6500Y-14500
X6500Y-15500
X6500Y-16500
X8750Y-6500
X8750Y-7500
X8750Y-8500
X9500Y-19500
X9500Y-20500
X9750Y-6500
X9750Y-7500
X9750Y-8500
X10500Y-19500
X10500Y-20500
X11500Y-19500
X11500Y-20500
X12500Y-19500
X12500Y-20500
X14250Y-18500
X14250Y-19500
X14250Y-20500
T4
X7500Y-19250
X12750Y-7500
T0
M30
